<svg width="100.000000" height="100.000000" viewBox="0 0 100 100" fill="none" xmlns="http://www.w3.org/2000/svg" xmlns:xlink="http://www.w3.org/1999/xlink">
	<desc>
			Created with Pixso.
	</desc>
	<defs/>
	<rect id="Rectangle" width="100.000000" height="100.000000" fill="#FFFEFE" fill-opacity="1.000000"/>
	<path id="Combined Shape" d="M12.41 65.78C13.67 65.08 14.16 66.22 13.34 66.45C11.53 66.96 12.1 69.44 13.91 69.91C15.21 70.26 18.78 69.79 19.66 69.57C19.84 69.49 21.56 69.42 23.34 69.4C25.12 69.38 27.94 70.14 28.7 70.25C29.45 70.36 30.68 70.58 31.44 70.59C32.2 70.6 33.46 70.12 33.48 70.11C33.5 70.11 33.56 70.04 33.71 69.86C33.86 69.69 34.35 69.34 34.38 69.35C34.42 69.35 34.47 69.48 34.5 69.7C34.53 69.92 34.41 70.07 34.41 70.07C34.41 70.07 35.11 69.89 35.11 70C35.11 70.11 34.92 70.43 34.9 70.46C34.89 70.5 35.62 71.06 35.81 71.32C35.99 71.58 35.92 71.57 35.97 71.88C36.03 72.19 36.5 72.97 36.51 73.05C36.53 73.12 36.52 73.14 36.44 73.2C36.37 73.27 36.38 73.23 36.29 73.32C36.2 73.4 35.88 73.8 35.5 73.99C35.12 74.17 35.06 74.02 34.76 73.84C34.47 73.67 33.09 73.89 32.83 74.09C32.61 74.25 32.16 74.7 32 74.86L31.94 74.92C31.94 74.92 31.87 75.03 31.78 75.45C31.69 75.87 31.72 76.29 31.83 76.99C31.94 77.69 33.06 79.31 33.23 79.45C33.4 79.58 33.71 79.73 33.92 79.97C34.14 80.21 33.95 80.35 33.71 80.43C33.48 80.5 32.91 80.38 32.73 80.31C32.55 80.24 32.46 79.72 31.87 79.3C31.28 78.88 30.34 78.1 30.2 77.72C30.06 77.33 29.93 76.27 29.93 76.27C29.93 76.27 29.8 76.56 29.41 77.06C29.01 77.55 28.1 78.38 28.1 78.73C28.1 79.08 28.21 79.65 28.33 79.87C28.46 80.09 28.64 80.11 28.8 80.16L28.88 80.19C29.02 80.24 29.16 80.3 29.28 80.51C29.43 80.77 29.27 80.84 29 80.84C28.73 80.84 28.35 80.97 27.88 80.79C27.42 80.6 26.56 79.04 26.36 78.66C26.16 78.27 26.59 77.55 26.77 77.22C26.95 76.89 27.2 76.45 27.2 76.45C27.2 76.45 25.55 76.47 24.69 76.25C23.83 76.03 22.84 75.95 22.84 75.95C22.84 75.95 22.77 76.36 22.63 76.95C22.48 77.53 21.8 78.21 21.73 78.43C21.66 78.66 22.12 79.11 22.39 79.41C22.66 79.7 23.2 79.9 23.42 80.05C23.63 80.2 23.88 80.44 23.74 80.73C23.59 81.03 23.47 80.77 23.22 80.82C22.97 80.88 22.34 80.97 21.91 80.88C21.48 80.79 21.46 80.24 20.89 79.74C20.31 79.24 19.72 78.69 19.77 78.36C19.83 78.03 19.9 76.54 19.88 76.45C19.86 76.36 19.13 76.96 18.34 77.35C17.55 77.74 15.93 78.13 15.84 78.4C15.74 78.66 15.41 79.9 15.47 80.26C15.52 80.63 15.62 80.84 15.72 81.04L15.76 81.12C15.82 81.23 15.81 81.25 15.72 81.33C15.61 81.43 14.83 81.34 14.66 81.1C14.49 80.86 14.18 79.41 14.29 79.09C14.41 78.77 15.04 76.65 15.27 76.47C15.5 76.29 16.35 75.77 16.81 74.61C17.18 73.7 17.07 72.28 17.23 71.48C14.67 71.46 11.42 71.72 11 68.1C10.88 67.09 11.53 66.26 12.41 65.78ZM60.98 19L83.74 74.14C84.84 76.83 86.81 78.17 89.64 78.17L90 78.17L90 80.05L61.41 80.05L61.41 78.17C66.73 77.99 69.38 76.74 69.38 74.41C69.38 73.76 69.26 73.16 69.03 72.61L64.83 62.5L44.3 62.5L41.15 70.55C40.74 71.6 40.54 72.62 40.54 73.62C40.54 76.48 42.87 77.99 47.54 78.17L47.54 80.05L35.92 80.05C36.73 77.7 38.55 73.07 38.69 72.69C38.87 72.21 39.13 71.54 39.13 71.06C39.12 70.57 39.27 69.84 39 68.92C38.73 67.99 38.41 67.2 38.36 66.7C38.31 66.2 38.46 64.87 38.51 64.03C38.57 63.19 38.79 62.61 38.9 62.51C39 62.4 38.97 62.31 39.26 62.29C39.55 62.27 39.71 62.21 40.13 62.25C40.55 62.29 41.02 62.16 41.37 62.14C41.73 62.13 42.1 62.15 42.57 61.89C43.04 61.64 43.12 61.41 43.31 61.2C43.49 60.98 43.72 60.61 43.8 60.4C43.88 60.2 43.92 60.07 43.54 59.99C43.15 59.9 42.53 59.59 42.1 59.5C41.67 59.42 41.15 59.31 40.94 59.11C40.73 58.92 40.63 58.68 40.48 58.53C40.33 58.38 40.25 58.3 39.91 58.19C39.56 58.07 38.98 57.72 38.77 57.67C38.56 57.62 38.29 57.56 38.23 57.44C38.18 57.32 37.83 56.55 37.69 56.19C37.55 55.84 37.27 55.23 37.16 55.24C37.05 55.26 36.95 56.2 36.73 56.76C36.5 57.32 36.18 57.84 36.17 58.13C36.16 58.42 35.88 58.87 35.66 59.24C35.44 59.6 34.7 60.98 34.41 61.97C34.12 62.96 33.4 64.2 33.03 64.57C32.66 64.93 30.58 66.24 30.04 66.61C29.87 66.72 29.75 66.81 29.63 66.89L49.28 19L60.98 19ZM54.24 36.85L45.66 59L63.38 59L54.24 36.85Z" fill="#59443F" fill-opacity="1.000000" fill-rule="nonzero"/>
</svg>
